<svg width="452" height="37" viewBox="0 0 452 37" fill="none" xmlns="http://www.w3.org/2000/svg">
<path d="M24.376 31.384C22.648 31.384 21.0373 31.1067 19.544 30.552C18.072 29.976 16.792 29.1653 15.704 28.12C14.616 27.0747 13.7627 25.848 13.144 24.44C12.5467 23.032 12.248 21.4853 12.248 19.8C12.248 18.1147 12.5467 16.568 13.144 15.16C13.7627 13.752 14.616 12.5253 15.704 11.48C16.8133 10.4347 18.104 9.63467 19.576 9.08C21.048 8.504 22.6587 8.216 24.408 8.216C26.3493 8.216 28.0987 8.55733 29.656 9.24C31.2347 9.90133 32.5573 10.8827 33.624 12.184L30.296 15.256C29.528 14.3813 28.6747 13.7307 27.736 13.304C26.7973 12.856 25.7733 12.632 24.664 12.632C23.6187 12.632 22.6587 12.8027 21.784 13.144C20.9093 13.4853 20.152 13.976 19.512 14.616C18.872 15.256 18.3707 16.0133 18.008 16.888C17.6667 17.7627 17.496 18.7333 17.496 19.8C17.496 20.8667 17.6667 21.8373 18.008 22.712C18.3707 23.5867 18.872 24.344 19.512 24.984C20.152 25.624 20.9093 26.1147 21.784 26.456C22.6587 26.7973 23.6187 26.968 24.664 26.968C25.7733 26.968 26.7973 26.7547 27.736 26.328C28.6747 25.88 29.528 25.208 30.296 24.312L33.624 27.384C32.5573 28.6853 31.2347 29.6773 29.656 30.36C28.0987 31.0427 26.3387 31.384 24.376 31.384ZM47.536 31.384C45.7653 31.384 44.1227 31.096 42.608 30.52C41.1147 29.944 39.8133 29.1333 38.704 28.088C37.616 27.0427 36.7627 25.816 36.144 24.408C35.5467 23 35.248 21.464 35.248 19.8C35.248 18.136 35.5467 16.6 36.144 15.192C36.7627 13.784 37.6267 12.5573 38.736 11.512C39.8453 10.4667 41.1467 9.656 42.64 9.08C44.1333 8.504 45.7547 8.216 47.504 8.216C49.2747 8.216 50.896 8.504 52.368 9.08C53.8613 9.656 55.152 10.4667 56.24 11.512C57.3493 12.5573 58.2133 13.784 58.832 15.192C59.4507 16.5787 59.76 18.1147 59.76 19.8C59.76 21.464 59.4507 23.0107 58.832 24.44C58.2133 25.848 57.3493 27.0747 56.24 28.12C55.152 29.144 53.8613 29.944 52.368 30.52C50.896 31.096 49.2853 31.384 47.536 31.384ZM47.504 26.968C48.5067 26.968 49.424 26.7973 50.256 26.456C51.1093 26.1147 51.856 25.624 52.496 24.984C53.136 24.344 53.6267 23.5867 53.968 22.712C54.3307 21.8373 54.512 20.8667 54.512 19.8C54.512 18.7333 54.3307 17.7627 53.968 16.888C53.6267 16.0133 53.136 15.256 52.496 14.616C51.8773 13.976 51.1413 13.4853 50.288 13.144C49.4347 12.8027 48.5067 12.632 47.504 12.632C46.5013 12.632 45.5733 12.8027 44.72 13.144C43.888 13.4853 43.152 13.976 42.512 14.616C41.872 15.256 41.3707 16.0133 41.008 16.888C40.6667 17.7627 40.496 18.7333 40.496 19.8C40.496 20.8453 40.6667 21.816 41.008 22.712C41.3707 23.5867 41.8613 24.344 42.48 24.984C43.12 25.624 43.8667 26.1147 44.72 26.456C45.5733 26.7973 46.5013 26.968 47.504 26.968ZM63.656 31V8.6H68.84V26.776H80.072V31H63.656ZM87.7365 17.624H98.5205V21.656H87.7365V17.624ZM88.1205 26.84H100.312V31H82.9685V8.6H99.8965V12.76H88.1205V26.84ZM115.157 31.384C113.429 31.384 111.819 31.1067 110.325 30.552C108.853 29.976 107.573 29.1653 106.485 28.12C105.397 27.0747 104.544 25.848 103.925 24.44C103.328 23.032 103.029 21.4853 103.029 19.8C103.029 18.1147 103.328 16.568 103.925 15.16C104.544 13.752 105.397 12.5253 106.485 11.48C107.595 10.4347 108.885 9.63467 110.357 9.08C111.829 8.504 113.44 8.216 115.189 8.216C117.131 8.216 118.88 8.55733 120.437 9.24C122.016 9.90133 123.339 10.8827 124.405 12.184L121.077 15.256C120.309 14.3813 119.456 13.7307 118.517 13.304C117.579 12.856 116.555 12.632 115.445 12.632C114.4 12.632 113.44 12.8027 112.565 13.144C111.691 13.4853 110.933 13.976 110.293 14.616C109.653 15.256 109.152 16.0133 108.789 16.888C108.448 17.7627 108.277 18.7333 108.277 19.8C108.277 20.8667 108.448 21.8373 108.789 22.712C109.152 23.5867 109.653 24.344 110.293 24.984C110.933 25.624 111.691 26.1147 112.565 26.456C113.44 26.7973 114.4 26.968 115.445 26.968C116.555 26.968 117.579 26.7547 118.517 26.328C119.456 25.88 120.309 25.208 121.077 24.312L124.405 27.384C123.339 28.6853 122.016 29.6773 120.437 30.36C118.88 31.0427 117.12 31.384 115.157 31.384ZM127.906 31V8.6H133.09V31H127.906ZM149.286 31.384C147.515 31.384 145.873 31.096 144.358 30.52C142.865 29.944 141.563 29.1333 140.454 28.088C139.366 27.0427 138.513 25.816 137.894 24.408C137.297 23 136.998 21.464 136.998 19.8C136.998 18.136 137.297 16.6 137.894 15.192C138.513 13.784 139.377 12.5573 140.486 11.512C141.595 10.4667 142.897 9.656 144.39 9.08C145.883 8.504 147.505 8.216 149.254 8.216C151.025 8.216 152.646 8.504 154.118 9.08C155.611 9.656 156.902 10.4667 157.99 11.512C159.099 12.5573 159.963 13.784 160.582 15.192C161.201 16.5787 161.51 18.1147 161.51 19.8C161.51 21.464 161.201 23.0107 160.582 24.44C159.963 25.848 159.099 27.0747 157.99 28.12C156.902 29.144 155.611 29.944 154.118 30.52C152.646 31.096 151.035 31.384 149.286 31.384ZM149.254 26.968C150.257 26.968 151.174 26.7973 152.006 26.456C152.859 26.1147 153.606 25.624 154.246 24.984C154.886 24.344 155.377 23.5867 155.718 22.712C156.081 21.8373 156.262 20.8667 156.262 19.8C156.262 18.7333 156.081 17.7627 155.718 16.888C155.377 16.0133 154.886 15.256 154.246 14.616C153.627 13.976 152.891 13.4853 152.038 13.144C151.185 12.8027 150.257 12.632 149.254 12.632C148.251 12.632 147.323 12.8027 146.47 13.144C145.638 13.4853 144.902 13.976 144.262 14.616C143.622 15.256 143.121 16.0133 142.758 16.888C142.417 17.7627 142.246 18.7333 142.246 19.8C142.246 20.8453 142.417 21.816 142.758 22.712C143.121 23.5867 143.611 24.344 144.23 24.984C144.87 25.624 145.617 26.1147 146.47 26.456C147.323 26.7973 148.251 26.968 149.254 26.968ZM165.406 31V8.6H169.694L182.91 24.728H180.83V8.6H185.95V31H181.694L168.446 14.872H170.526V31H165.406ZM188.306 31L198.29 8.6H203.41L213.426 31H207.986L199.794 11.224H201.842L193.618 31H188.306ZM193.298 26.2L194.674 22.264H206.194L207.602 26.2H193.298ZM197.938 6.776L202.258 2.168H207.634L201.842 6.776H197.938ZM221.251 31L211.587 8.6H217.187L225.635 28.44H222.339L230.915 8.6H236.067L226.371 31H221.251ZM242.705 17.624H253.489V21.656H242.705V17.624ZM243.089 26.84H255.281V31H237.937V8.6H254.865V12.76H243.089V26.84ZM259.406 31V8.6H264.59V31H259.406ZM277.266 31.384C275.474 31.384 273.757 31.1493 272.114 30.68C270.471 30.1893 269.149 29.56 268.146 28.792L269.906 24.888C270.866 25.5707 271.997 26.136 273.298 26.584C274.621 27.0107 275.954 27.224 277.298 27.224C278.322 27.224 279.143 27.128 279.762 26.936C280.402 26.7227 280.871 26.4347 281.17 26.072C281.469 25.7093 281.618 25.2933 281.618 24.824C281.618 24.2267 281.383 23.7573 280.914 23.416C280.445 23.0533 279.826 22.7653 279.058 22.552C278.29 22.3173 277.437 22.104 276.498 21.912C275.581 21.6987 274.653 21.4427 273.714 21.144C272.797 20.8453 271.954 20.4613 271.186 19.992C270.418 19.5227 269.789 18.904 269.298 18.136C268.829 17.368 268.594 16.3867 268.594 15.192C268.594 13.912 268.935 12.7493 269.618 11.704C270.322 10.6373 271.367 9.79467 272.754 9.176C274.162 8.536 275.922 8.216 278.034 8.216C279.442 8.216 280.829 8.38667 282.194 8.728C283.559 9.048 284.765 9.53867 285.81 10.2L284.21 14.136C283.165 13.5387 282.119 13.1013 281.074 12.824C280.029 12.5253 279.005 12.376 278.002 12.376C276.999 12.376 276.178 12.4933 275.538 12.728C274.898 12.9627 274.439 13.272 274.162 13.656C273.885 14.0187 273.746 14.4453 273.746 14.936C273.746 15.512 273.981 15.9813 274.45 16.344C274.919 16.6853 275.538 16.9627 276.306 17.176C277.074 17.3893 277.917 17.6027 278.834 17.816C279.773 18.0293 280.701 18.2747 281.618 18.552C282.557 18.8293 283.41 19.2027 284.178 19.672C284.946 20.1413 285.565 20.76 286.034 21.528C286.525 22.296 286.77 23.2667 286.77 24.44C286.77 25.6987 286.418 26.8507 285.714 27.896C285.01 28.9413 283.954 29.784 282.546 30.424C281.159 31.064 279.399 31.384 277.266 31.384Z" fill="white"/>
<path d="M3 0L3 37" stroke="#007CEB" stroke-width="6"/>
</svg>
