<svg width="217" height="24" viewBox="0 0 217 24" fill="none" xmlns="http://www.w3.org/2000/svg">
<path d="M12.376 23.384C10.648 23.384 9.03733 23.1067 7.544 22.552C6.072 21.976 4.792 21.1653 3.704 20.12C2.616 19.0747 1.76267 17.848 1.144 16.44C0.546667 15.032 0.248 13.4853 0.248 11.8C0.248 10.1147 0.546667 8.568 1.144 7.16C1.76267 5.752 2.616 4.52533 3.704 3.48C4.81333 2.43467 6.104 1.63467 7.576 1.08C9.048 0.503999 10.6587 0.216 12.408 0.216C14.3493 0.216 16.0987 0.557333 17.656 1.24C19.2347 1.90133 20.5573 2.88267 21.624 4.184L18.296 7.256C17.528 6.38133 16.6747 5.73067 15.736 5.304C14.7973 4.856 13.7733 4.632 12.664 4.632C11.6187 4.632 10.6587 4.80267 9.784 5.144C8.90933 5.48533 8.152 5.976 7.512 6.616C6.872 7.256 6.37067 8.01333 6.008 8.888C5.66667 9.76267 5.496 10.7333 5.496 11.8C5.496 12.8667 5.66667 13.8373 6.008 14.712C6.37067 15.5867 6.872 16.344 7.512 16.984C8.152 17.624 8.90933 18.1147 9.784 18.456C10.6587 18.7973 11.6187 18.968 12.664 18.968C13.7733 18.968 14.7973 18.7547 15.736 18.328C16.6747 17.88 17.528 17.208 18.296 16.312L21.624 19.384C20.5573 20.6853 19.2347 21.6773 17.656 22.36C16.0987 23.0427 14.3387 23.384 12.376 23.384ZM21.7745 23L31.7585 0.599998H36.8785L46.8945 23H41.4545L33.2625 3.224H35.3105L27.0865 23H21.7745ZM26.7665 18.2L28.1425 14.264H39.6625L41.0705 18.2H26.7665ZM52.7335 23V4.824H45.5655V0.599998H65.0855V4.824H57.9175V23H52.7335ZM72.6428 9.624H83.4268V13.656H72.6428V9.624ZM73.0268 18.84H85.2188V23H67.8748V0.599998H84.8028V4.76H73.0268V18.84ZM100.16 23.384C98.3888 23.384 96.7568 23.1067 95.2635 22.552C93.7915 21.976 92.5008 21.1653 91.3915 20.12C90.3035 19.0747 89.4502 17.848 88.8315 16.44C88.2342 15.032 87.9355 13.4853 87.9355 11.8C87.9355 10.1147 88.2342 8.568 88.8315 7.16C89.4502 5.752 90.3142 4.52533 91.4235 3.48C92.5328 2.43467 93.8342 1.63467 95.3275 1.08C96.8208 0.503999 98.4635 0.216 100.256 0.216C102.24 0.216 104.021 0.546666 105.6 1.208C107.2 1.86933 108.544 2.82933 109.632 4.088L106.304 7.16C105.493 6.30667 104.608 5.67733 103.648 5.272C102.688 4.84533 101.642 4.632 100.512 4.632C99.4235 4.632 98.4315 4.80267 97.5355 5.144C96.6395 5.48533 95.8608 5.976 95.1995 6.616C94.5595 7.256 94.0582 8.01333 93.6955 8.888C93.3542 9.76267 93.1835 10.7333 93.1835 11.8C93.1835 12.8453 93.3542 13.8053 93.6955 14.68C94.0582 15.5547 94.5595 16.3227 95.1995 16.984C95.8608 17.624 96.6288 18.1147 97.5035 18.456C98.3995 18.7973 99.3808 18.968 100.448 18.968C101.472 18.968 102.464 18.808 103.424 18.488C104.405 18.1467 105.354 17.5813 106.272 16.792L109.216 20.536C108 21.4533 106.581 22.1573 104.96 22.648C103.36 23.1387 101.76 23.384 100.16 23.384ZM104.48 19.864V11.448H109.216V20.536L104.48 19.864ZM124.911 23.384C123.14 23.384 121.498 23.096 119.983 22.52C118.49 21.944 117.188 21.1333 116.079 20.088C114.991 19.0427 114.138 17.816 113.519 16.408C112.922 15 112.623 13.464 112.623 11.8C112.623 10.136 112.922 8.6 113.519 7.192C114.138 5.784 115.002 4.55733 116.111 3.512C117.22 2.46667 118.522 1.656 120.015 1.08C121.508 0.503999 123.13 0.216 124.879 0.216C126.65 0.216 128.271 0.503999 129.743 1.08C131.236 1.656 132.527 2.46667 133.615 3.512C134.724 4.55733 135.588 5.784 136.207 7.192C136.826 8.57867 137.135 10.1147 137.135 11.8C137.135 13.464 136.826 15.0107 136.207 16.44C135.588 17.848 134.724 19.0747 133.615 20.12C132.527 21.144 131.236 21.944 129.743 22.52C128.271 23.096 126.66 23.384 124.911 23.384ZM124.879 18.968C125.882 18.968 126.799 18.7973 127.631 18.456C128.484 18.1147 129.231 17.624 129.871 16.984C130.511 16.344 131.002 15.5867 131.343 14.712C131.706 13.8373 131.887 12.8667 131.887 11.8C131.887 10.7333 131.706 9.76267 131.343 8.888C131.002 8.01333 130.511 7.256 129.871 6.616C129.252 5.976 128.516 5.48533 127.663 5.144C126.81 4.80267 125.882 4.632 124.879 4.632C123.876 4.632 122.948 4.80267 122.095 5.144C121.263 5.48533 120.527 5.976 119.887 6.616C119.247 7.256 118.746 8.01333 118.383 8.888C118.042 9.76267 117.871 10.7333 117.871 11.8C117.871 12.8453 118.042 13.816 118.383 14.712C118.746 15.5867 119.236 16.344 119.855 16.984C120.495 17.624 121.242 18.1147 122.095 18.456C122.948 18.7973 123.876 18.968 124.879 18.968ZM141.031 23V0.599998H150.727C152.732 0.599998 154.46 0.930665 155.911 1.592C157.362 2.232 158.482 3.16 159.271 4.376C160.06 5.592 160.455 7.04267 160.455 8.728C160.455 10.392 160.06 11.832 159.271 13.048C158.482 14.2427 157.362 15.16 155.911 15.8C154.46 16.44 152.732 16.76 150.727 16.76H143.911L146.215 14.488V23H141.031ZM155.271 23L149.671 14.872H155.207L160.871 23H155.271ZM146.215 15.064L143.911 12.632H150.439C152.039 12.632 153.234 12.2907 154.023 11.608C154.812 10.904 155.207 9.944 155.207 8.728C155.207 7.49067 154.812 6.53067 154.023 5.848C153.234 5.16533 152.039 4.824 150.439 4.824H143.911L146.215 2.36V15.064ZM164.562 23V0.599998H169.746V23H164.562ZM172.118 23L182.102 0.599998H187.222L197.238 23H191.798L183.606 3.224H185.654L177.43 23H172.118ZM177.11 18.2L178.486 14.264H190.006L191.414 18.2H177.11ZM206.922 23.384C205.13 23.384 203.413 23.1493 201.77 22.68C200.128 22.1893 198.805 21.56 197.802 20.792L199.562 16.888C200.522 17.5707 201.653 18.136 202.954 18.584C204.277 19.0107 205.61 19.224 206.954 19.224C207.978 19.224 208.8 19.128 209.418 18.936C210.058 18.7227 210.528 18.4347 210.826 18.072C211.125 17.7093 211.274 17.2933 211.274 16.824C211.274 16.2267 211.04 15.7573 210.57 15.416C210.101 15.0533 209.482 14.7653 208.714 14.552C207.946 14.3173 207.093 14.104 206.154 13.912C205.237 13.6987 204.309 13.4427 203.37 13.144C202.453 12.8453 201.61 12.4613 200.842 11.992C200.074 11.5227 199.445 10.904 198.954 10.136C198.485 9.368 198.25 8.38667 198.25 7.192C198.25 5.912 198.592 4.74933 199.274 3.704C199.978 2.63733 201.024 1.79467 202.41 1.176C203.818 0.535999 205.578 0.216 207.69 0.216C209.098 0.216 210.485 0.386666 211.85 0.727999C213.216 1.048 214.421 1.53867 215.466 2.2L213.866 6.136C212.821 5.53867 211.776 5.10133 210.73 4.824C209.685 4.52533 208.661 4.376 207.658 4.376C206.656 4.376 205.834 4.49333 205.194 4.728C204.554 4.96267 204.096 5.272 203.818 5.656C203.541 6.01867 203.402 6.44533 203.402 6.936C203.402 7.512 203.637 7.98133 204.106 8.344C204.576 8.68533 205.194 8.96267 205.962 9.176C206.73 9.38933 207.573 9.60267 208.49 9.816C209.429 10.0293 210.357 10.2747 211.274 10.552C212.213 10.8293 213.066 11.2027 213.834 11.672C214.602 12.1413 215.221 12.76 215.69 13.528C216.181 14.296 216.426 15.2667 216.426 16.44C216.426 17.6987 216.074 18.8507 215.37 19.896C214.666 20.9413 213.61 21.784 212.202 22.424C210.816 23.064 209.056 23.384 206.922 23.384Z" fill="white"/>
</svg>
