<svg width="452" height="37" viewBox="0 0 452 37" fill="none" xmlns="http://www.w3.org/2000/svg">
<path d="M24.376 31.384C22.648 31.384 21.0373 31.1067 19.544 30.552C18.072 29.976 16.792 29.1653 15.704 28.12C14.616 27.0747 13.7627 25.848 13.144 24.44C12.5467 23.032 12.248 21.4853 12.248 19.8C12.248 18.1147 12.5467 16.568 13.144 15.16C13.7627 13.752 14.616 12.5253 15.704 11.48C16.8133 10.4347 18.104 9.63467 19.576 9.08C21.048 8.504 22.6587 8.216 24.408 8.216C26.3493 8.216 28.0987 8.55733 29.656 9.24C31.2347 9.90133 32.5573 10.8827 33.624 12.184L30.296 15.256C29.528 14.3813 28.6747 13.7307 27.736 13.304C26.7973 12.856 25.7733 12.632 24.664 12.632C23.6187 12.632 22.6587 12.8027 21.784 13.144C20.9093 13.4853 20.152 13.976 19.512 14.616C18.872 15.256 18.3707 16.0133 18.008 16.888C17.6667 17.7627 17.496 18.7333 17.496 19.8C17.496 20.8667 17.6667 21.8373 18.008 22.712C18.3707 23.5867 18.872 24.344 19.512 24.984C20.152 25.624 20.9093 26.1147 21.784 26.456C22.6587 26.7973 23.6187 26.968 24.664 26.968C25.7733 26.968 26.7973 26.7547 27.736 26.328C28.6747 25.88 29.528 25.208 30.296 24.312L33.624 27.384C32.5573 28.6853 31.2347 29.6773 29.656 30.36C28.0987 31.0427 26.3387 31.384 24.376 31.384ZM33.7745 31L43.7585 8.6H48.8785L58.8945 31H53.4545L45.2625 11.224H47.3105L39.0865 31H33.7745ZM38.7665 26.2L40.1425 22.264H51.6625L53.0705 26.2H38.7665ZM61.2185 31V8.6H70.9145C72.9198 8.6 74.6478 8.93067 76.0985 9.592C77.5492 10.232 78.6692 11.16 79.4585 12.376C80.2478 13.592 80.6425 15.0427 80.6425 16.728C80.6425 18.392 80.2478 19.832 79.4585 21.048C78.6692 22.2427 77.5492 23.16 76.0985 23.8C74.6478 24.44 72.9198 24.76 70.9145 24.76H64.0985L66.4025 22.488V31H61.2185ZM75.4585 31L69.8585 22.872H75.3945L81.0585 31H75.4585ZM66.4025 23.064L64.0985 20.632H70.6265C72.2265 20.632 73.4212 20.2907 74.2105 19.608C74.9998 18.904 75.3945 17.944 75.3945 16.728C75.3945 15.4907 74.9998 14.5307 74.2105 13.848C73.4212 13.1653 72.2265 12.824 70.6265 12.824H64.0985L66.4025 10.36V23.064ZM84.7498 31V8.6H94.4458C96.4511 8.6 98.1791 8.93067 99.6298 9.592C101.08 10.232 102.2 11.16 102.99 12.376C103.779 13.592 104.174 15.0427 104.174 16.728C104.174 18.392 103.779 19.832 102.99 21.048C102.2 22.2427 101.08 23.16 99.6298 23.8C98.1791 24.44 96.4511 24.76 94.4458 24.76H87.6298L89.9338 22.488V31H84.7498ZM98.9897 31L93.3898 22.872H98.9258L104.59 31H98.9897ZM89.9338 23.064L87.6298 20.632H94.1578C95.7578 20.632 96.9524 20.2907 97.7418 19.608C98.5311 18.904 98.9258 17.944 98.9258 16.728C98.9258 15.4907 98.5311 14.5307 97.7418 13.848C96.9524 13.1653 95.7578 12.824 94.1578 12.824H87.6298L89.9338 10.36V23.064ZM108.281 31V8.6H113.465V31H108.281ZM118.781 31V8.6H123.069L136.285 24.728H134.205V8.6H139.325V31H135.069L121.821 14.872H123.901V31H118.781ZM159.985 8.6H165.169V31H159.985V8.6ZM149.809 31H144.625V8.6H149.809V31ZM160.369 21.816H149.425V17.432H160.369V21.816ZM181.349 31.384C179.578 31.384 177.935 31.096 176.421 30.52C174.927 29.944 173.626 29.1333 172.516 28.088C171.429 27.0427 170.575 25.816 169.957 24.408C169.359 23 169.061 21.464 169.061 19.8C169.061 18.136 169.359 16.6 169.957 15.192C170.575 13.784 171.439 12.5573 172.549 11.512C173.658 10.4667 174.959 9.656 176.453 9.08C177.946 8.504 179.567 8.216 181.317 8.216C183.087 8.216 184.708 8.504 186.181 9.08C187.674 9.656 188.965 10.4667 190.053 11.512C191.162 12.5573 192.026 13.784 192.645 15.192C193.263 16.5787 193.573 18.1147 193.573 19.8C193.573 21.464 193.263 23.0107 192.645 24.44C192.026 25.848 191.162 27.0747 190.053 28.12C188.965 29.144 187.674 29.944 186.181 30.52C184.708 31.096 183.098 31.384 181.349 31.384ZM181.317 26.968C182.319 26.968 183.237 26.7973 184.069 26.456C184.922 26.1147 185.669 25.624 186.309 24.984C186.949 24.344 187.439 23.5867 187.781 22.712C188.143 21.8373 188.325 20.8667 188.325 19.8C188.325 18.7333 188.143 17.7627 187.781 16.888C187.439 16.0133 186.949 15.256 186.309 14.616C185.69 13.976 184.954 13.4853 184.101 13.144C183.247 12.8027 182.319 12.632 181.317 12.632C180.314 12.632 179.386 12.8027 178.533 13.144C177.701 13.4853 176.965 13.976 176.325 14.616C175.685 15.256 175.183 16.0133 174.821 16.888C174.479 17.7627 174.309 18.7333 174.309 19.8C174.309 20.8453 174.479 21.816 174.821 22.712C175.183 23.5867 175.674 24.344 176.293 24.984C176.933 25.624 177.679 26.1147 178.533 26.456C179.386 26.7973 180.314 26.968 181.317 26.968ZM206.531 31V8.6H216.707C219.139 8.6 221.283 9.06933 223.139 10.008C224.995 10.9253 226.446 12.216 227.491 13.88C228.536 15.544 229.059 17.5173 229.059 19.8C229.059 22.0613 228.536 24.0347 227.491 25.72C226.446 27.384 224.995 28.6853 223.139 29.624C221.283 30.5413 219.139 31 216.707 31H206.531ZM211.715 26.744H216.451C217.944 26.744 219.235 26.4667 220.323 25.912C221.432 25.336 222.286 24.5253 222.883 23.48C223.502 22.4347 223.811 21.208 223.811 19.8C223.811 18.3707 223.502 17.144 222.883 16.12C222.286 15.0747 221.432 14.2747 220.323 13.72C219.235 13.144 217.944 12.856 216.451 12.856H211.715V26.744ZM237.737 17.624H248.521V21.656H237.737V17.624ZM238.121 26.84H250.312V31H232.969V8.6H249.897V12.76H238.121V26.84ZM274.22 31.384C272.492 31.384 270.881 31.1067 269.388 30.552C267.916 29.976 266.636 29.1653 265.548 28.12C264.46 27.0747 263.606 25.848 262.988 24.44C262.39 23.032 262.092 21.4853 262.092 19.8C262.092 18.1147 262.39 16.568 262.988 15.16C263.606 13.752 264.46 12.5253 265.548 11.48C266.657 10.4347 267.948 9.63467 269.42 9.08C270.892 8.504 272.502 8.216 274.252 8.216C276.193 8.216 277.942 8.55733 279.5 9.24C281.078 9.90133 282.401 10.8827 283.468 12.184L280.14 15.256C279.372 14.3813 278.518 13.7307 277.58 13.304C276.641 12.856 275.617 12.632 274.508 12.632C273.462 12.632 272.502 12.8027 271.628 13.144C270.753 13.4853 269.996 13.976 269.356 14.616C268.716 15.256 268.214 16.0133 267.852 16.888C267.51 17.7627 267.34 18.7333 267.34 19.8C267.34 20.8667 267.51 21.8373 267.852 22.712C268.214 23.5867 268.716 24.344 269.356 24.984C269.996 25.624 270.753 26.1147 271.628 26.456C272.502 26.7973 273.462 26.968 274.508 26.968C275.617 26.968 276.641 26.7547 277.58 26.328C278.518 25.88 279.372 25.208 280.14 24.312L283.468 27.384C282.401 28.6853 281.078 29.6773 279.5 30.36C277.942 31.0427 276.182 31.384 274.22 31.384ZM297.38 31.384C295.609 31.384 293.966 31.096 292.452 30.52C290.958 29.944 289.657 29.1333 288.548 28.088C287.46 27.0427 286.606 25.816 285.988 24.408C285.39 23 285.092 21.464 285.092 19.8C285.092 18.136 285.39 16.6 285.988 15.192C286.606 13.784 287.47 12.5573 288.58 11.512C289.689 10.4667 290.99 9.656 292.484 9.08C293.977 8.504 295.598 8.216 297.348 8.216C299.118 8.216 300.74 8.504 302.212 9.08C303.705 9.656 304.996 10.4667 306.084 11.512C307.193 12.5573 308.057 13.784 308.676 15.192C309.294 16.5787 309.604 18.1147 309.604 19.8C309.604 21.464 309.294 23.0107 308.676 24.44C308.057 25.848 307.193 27.0747 306.084 28.12C304.996 29.144 303.705 29.944 302.212 30.52C300.74 31.096 299.129 31.384 297.38 31.384ZM297.348 26.968C298.35 26.968 299.268 26.7973 300.1 26.456C300.953 26.1147 301.7 25.624 302.34 24.984C302.98 24.344 303.47 23.5867 303.812 22.712C304.174 21.8373 304.356 20.8667 304.356 19.8C304.356 18.7333 304.174 17.7627 303.812 16.888C303.47 16.0133 302.98 15.256 302.34 14.616C301.721 13.976 300.985 13.4853 300.132 13.144C299.278 12.8027 298.35 12.632 297.348 12.632C296.345 12.632 295.417 12.8027 294.564 13.144C293.732 13.4853 292.996 13.976 292.356 14.616C291.716 15.256 291.214 16.0133 290.852 16.888C290.51 17.7627 290.34 18.7333 290.34 19.8C290.34 20.8453 290.51 21.816 290.852 22.712C291.214 23.5867 291.705 24.344 292.324 24.984C292.964 25.624 293.71 26.1147 294.564 26.456C295.417 26.7973 296.345 26.968 297.348 26.968ZM313.5 31V8.6H317.788L327.324 24.408H325.052L334.428 8.6H338.684L338.748 31H333.884L333.852 16.056H334.748L327.26 28.632H324.924L317.276 16.056H318.364V31H313.5ZM344.062 31V8.6H353.758C355.764 8.6 357.492 8.93067 358.942 9.592C360.393 10.232 361.513 11.16 362.302 12.376C363.092 13.592 363.486 15.0427 363.486 16.728C363.486 18.392 363.092 19.832 362.302 21.048C361.513 22.264 360.393 23.2027 358.942 23.864C357.492 24.504 355.764 24.824 353.758 24.824H346.942L349.246 22.488V31H344.062ZM349.246 23.064L346.942 20.6H353.47C355.07 20.6 356.265 20.2587 357.054 19.576C357.844 18.8933 358.238 17.944 358.238 16.728C358.238 15.4907 357.844 14.5307 357.054 13.848C356.265 13.1653 355.07 12.824 353.47 12.824H346.942L349.246 10.36V23.064ZM367.187 31V8.6H376.883C378.889 8.6 380.617 8.93067 382.067 9.592C383.518 10.232 384.638 11.16 385.427 12.376C386.217 13.592 386.611 15.0427 386.611 16.728C386.611 18.392 386.217 19.832 385.427 21.048C384.638 22.2427 383.518 23.16 382.067 23.8C380.617 24.44 378.889 24.76 376.883 24.76H370.067L372.371 22.488V31H367.187ZM381.427 31L375.827 22.872H381.363L387.027 31H381.427ZM372.371 23.064L370.067 20.632H376.595C378.195 20.632 379.39 20.2907 380.179 19.608C380.969 18.904 381.363 17.944 381.363 16.728C381.363 15.4907 380.969 14.5307 380.179 13.848C379.39 13.1653 378.195 12.824 376.595 12.824H370.067L372.371 10.36V23.064ZM387.774 31L397.759 8.6H402.879L412.895 31H407.455L399.263 11.224H401.311L393.087 31H387.774ZM392.766 26.2L394.143 22.264H405.663L407.071 26.2H392.766ZM422.579 31.384C420.787 31.384 419.069 31.1493 417.427 30.68C415.784 30.1893 414.461 29.56 413.459 28.792L415.219 24.888C416.179 25.5707 417.309 26.136 418.611 26.584C419.933 27.0107 421.267 27.224 422.611 27.224C423.635 27.224 424.456 27.128 425.075 26.936C425.715 26.7227 426.184 26.4347 426.483 26.072C426.781 25.7093 426.931 25.2933 426.931 24.824C426.931 24.2267 426.696 23.7573 426.227 23.416C425.757 23.0533 425.139 22.7653 424.371 22.552C423.603 22.3173 422.749 22.104 421.811 21.912C420.893 21.6987 419.965 21.4427 419.027 21.144C418.109 20.8453 417.267 20.4613 416.499 19.992C415.731 19.5227 415.101 18.904 414.611 18.136C414.141 17.368 413.907 16.3867 413.907 15.192C413.907 13.912 414.248 12.7493 414.931 11.704C415.635 10.6373 416.68 9.79467 418.067 9.176C419.475 8.536 421.235 8.216 423.347 8.216C424.755 8.216 426.141 8.38667 427.507 8.728C428.872 9.048 430.077 9.53867 431.123 10.2L429.523 14.136C428.477 13.5387 427.432 13.1013 426.387 12.824C425.341 12.5253 424.317 12.376 423.315 12.376C422.312 12.376 421.491 12.4933 420.851 12.728C420.211 12.9627 419.752 13.272 419.475 13.656C419.197 14.0187 419.059 14.4453 419.059 14.936C419.059 15.512 419.293 15.9813 419.763 16.344C420.232 16.6853 420.851 16.9627 421.619 17.176C422.387 17.3893 423.229 17.6027 424.147 17.816C425.085 18.0293 426.013 18.2747 426.931 18.552C427.869 18.8293 428.723 19.2027 429.491 19.672C430.259 20.1413 430.877 20.76 431.347 21.528C431.837 22.296 432.083 23.2667 432.083 24.44C432.083 25.6987 431.731 26.8507 431.027 27.896C430.323 28.9413 429.267 29.784 427.859 30.424C426.472 31.064 424.712 31.384 422.579 31.384Z" fill="white"/>
<path d="M3 0L3 37" stroke="#007CEB" stroke-width="6"/>
</svg>
